HIERARCHY
ROOT hip
{
  OFFSET 0 0 0
  CHANNELS 6 Xposition Yposition Zposition Zrotation Yrotation Xrotation
  JOINT abdomen
  {
    OFFSET 0 20.6881 -0.73152
    CHANNELS 3 Zrotation Xrotation Yrotation
    JOINT chest
    {
      OFFSET 0 11.7043 -0.48768
      CHANNELS 3 Zrotation Xrotation Yrotation
      JOINT neck
      {
        OFFSET 0 22.1894 -2.19456
        CHANNELS 3 Zrotation Xrotation Yrotation
        JOINT head
        {
          OFFSET -0.24384 7.07133 1.2192
          CHANNELS 3 Zrotation Xrotation Yrotation
          JOINT leftEye
          {
            OFFSET 4.14528 8.04674 8.04672
            CHANNELS 3 Zrotation Xrotation Yrotation
            End Site
            {
              OFFSET 1 0 0
            }
          }
          JOINT rightEye
          {
            OFFSET -3.6576 8.04674 8.04672
            CHANNELS 3 Zrotation Xrotation Yrotation
            End Site
            {
              OFFSET 1 0 0
            }
          }
        }
      }
      JOINT rCollar
      {
        OFFSET -2.68224 19.2634 -4.8768
        CHANNELS 3 Zrotation Xrotation Yrotation
        JOINT rShldr
        {
          OFFSET -8.77824 -1.95073 1.46304
          CHANNELS 3 Zrotation Xrotation Yrotation
          JOINT rForeArm
          {
            OFFSET -28.1742 -1.7115 0.48768
            CHANNELS 3 Zrotation Xrotation Yrotation
            JOINT rHand
            {
              OFFSET -22.5879 0.773209 7.07136
              CHANNELS 3 Zrotation Xrotation Yrotation
              JOINT rThumb1
              {
                OFFSET -1.2192 -0.487915 3.41376
                CHANNELS 3 Zrotation Xrotation Yrotation
                JOINT rThumb2
                {
                  OFFSET -3.37035 -0.52449 3.41376
                  CHANNELS 3 Zrotation Xrotation Yrotation
                  End Site
                  {
                    OFFSET -1.78271 -1.18214 1.43049
                  }
                }
              }
              JOINT rIndex1
              {
                OFFSET -7.75947 0.938293 5.60832
                CHANNELS 3 Zrotation Xrotation Yrotation
                JOINT rIndex2
                {
                  OFFSET -2.54057 -0.884171 1.56538
                  CHANNELS 3 Zrotation Xrotation Yrotation
                  End Site
                  {
                    OFFSET -1.62519 -0.234802 1.16502
                  }
                }
              }
              JOINT rMid1
              {
                OFFSET -8.24714 1.18213 3.41376
                CHANNELS 3 Zrotation Xrotation Yrotation
                JOINT rMid2
                {
                  OFFSET -3.10165 -0.590103 1.0647
                  CHANNELS 3 Zrotation Xrotation Yrotation
                  End Site
                  {
                    OFFSET -2.48547 -0.328903 0.83742
                  }
                }
              }
              JOINT rRing1
              {
                OFFSET -8.82822 0.546677 1.51678
                CHANNELS 3 Zrotation Xrotation Yrotation
                JOINT rRing2
                {
                  OFFSET -2.60934 -0.819778 -0.0198488
                  CHANNELS 3 Zrotation Xrotation Yrotation
                  End Site
                  {
                    OFFSET -2.33842 -0.294052 0.168128
                  }
                }
              }
              JOINT rPinky1
              {
                OFFSET -8.27202 -0.0477905 -0.4584
                CHANNELS 3 Zrotation Xrotation Yrotation
                JOINT rPinky2
                {
                  OFFSET -1.82734 -0.647385 -0.700984
                  CHANNELS 3 Zrotation Xrotation Yrotation
                  End Site
                  {
                    OFFSET -1.69225 -0.51767 -0.607171
                  }
                }
              }
            }
          }
        }
      }
      JOINT lCollar
      {
        OFFSET 2.68224 19.2634 -4.8768
        CHANNELS 3 Zrotation Xrotation Yrotation
        JOINT lShldr
        {
          OFFSET 8.77824 -1.95073 1.46304
          CHANNELS 3 Zrotation Xrotation Yrotation
          JOINT lForeArm
          {
            OFFSET 28.1742 -1.7115 0.48768
            CHANNELS 3 Zrotation Xrotation Yrotation
            JOINT lHand
            {
              OFFSET 22.5879 0.773209 7.07136
              CHANNELS 3 Zrotation Xrotation Yrotation
              JOINT lThumb1
              {
                OFFSET 1.2192 -0.487915 3.41376
                CHANNELS 3 Zrotation Xrotation Yrotation
                JOINT lThumb2
                {
                  OFFSET 3.37035 -0.52449 3.41376
                  CHANNELS 3 Zrotation Xrotation Yrotation
                  End Site
                  {
                    OFFSET 1.78271 -1.18214 1.43049
                  }
                }
              }
              JOINT lIndex1
              {
                OFFSET 7.75947 0.938293 5.60832
                CHANNELS 3 Zrotation Xrotation Yrotation
                JOINT lIndex2
                {
                  OFFSET 2.54057 -0.884171 1.56538
                  CHANNELS 3 Zrotation Xrotation Yrotation
                  End Site
                  {
                    OFFSET 1.62519 -0.234802 1.16502
                  }
                }
              }
              JOINT lMid1
              {
                OFFSET 8.24714 1.18213 3.41376
                CHANNELS 3 Zrotation Xrotation Yrotation
                JOINT lMid2
                {
                  OFFSET 3.10165 -0.590103 1.0647
                  CHANNELS 3 Zrotation Xrotation Yrotation
                  End Site
                  {
                    OFFSET 2.48547 -0.328903 0.83742
                  }
                }
              }
              JOINT lRing1
              {
                OFFSET 8.82822 0.546677 1.51678
                CHANNELS 3 Zrotation Xrotation Yrotation
                JOINT lRing2
                {
                  OFFSET 2.60934 -0.819778 -0.0198488
                  CHANNELS 3 Zrotation Xrotation Yrotation
                  End Site
                  {
                    OFFSET 2.33842 -0.294052 0.168128
                  }
                }
              }
              JOINT lPinky1
              {
                OFFSET 8.27202 -0.0477905 -0.4584
                CHANNELS 3 Zrotation Xrotation Yrotation
                JOINT lPinky2
                {
                  OFFSET 1.82734 -0.647385 -0.700984
                  CHANNELS 3 Zrotation Xrotation Yrotation
                  End Site
                  {
                    OFFSET 1.69225 -0.51767 -0.607171
                  }
                }
              }
            }
          }
        }
      }
    }
  }
  JOINT rButtock
  {
    OFFSET -8.77824 4.35084 1.2192
    CHANNELS 3 Zrotation Xrotation Yrotation
    JOINT rThigh
    {
      OFFSET 0 -1.70687 -2.19456
      CHANNELS 3 Zrotation Xrotation Yrotation
      JOINT rShin
      {
        OFFSET 0 -36.8199 0.73152
        CHANNELS 3 Zrotation Xrotation Yrotation
        JOINT rFoot
        {
          OFFSET 0.73152 -45.1104 -5.12064
          CHANNELS 3 Zrotation Xrotation Yrotation
          End Site
          {
            OFFSET -1.1221 -3.69964 12.103
          }
        }
      }
    }
  }
  JOINT lButtock
  {
    OFFSET 8.77824 4.35084 1.2192
    CHANNELS 3 Zrotation Xrotation Yrotation
    JOINT lThigh
    {
      OFFSET 0 -1.70687 -2.19456
      CHANNELS 3 Zrotation Xrotation Yrotation
      JOINT lShin
      {
        OFFSET 0 -36.8199 0.73152
        CHANNELS 3 Zrotation Xrotation Yrotation
        JOINT lFoot
        {
          OFFSET -0.73152 -45.1104 -5.12064
          CHANNELS 3 Zrotation Xrotation Yrotation
          End Site
          {
            OFFSET 1.1221 -3.69964 12.103
          }
        }
      }
    }
  }
}
MOTION
Frames:	6
Frame Time:	0.00833333
54.7547 84.5294 6.22226 0.0 0.0 0.0 -0.769346 -0.00386031 -0.0215833 -0.212073 -0.00504117 -0.0367439 2.20583e-15 -7.95139e-16 -1.11816e-16 6.37975e-15 3.18055e-15 -3.75827e-16 -0.0 0.0 0.0 -0.0 0.0 0.0 1.14179e-15 1.26182e-17 9.93923e-17 2.38329e-14 -2.48481e-17 -3.97569e-16 3.82859e-13 -1.07344e-13 9.54166e-15 4.40402e-12 1.48964e-13 -2.92611e-13 1.03866e-11 9.15684e-14 -6.23389e-13 1.79248e-11 1.55847e-13 -1.08377e-12 1.03897e-11 9.10434e-14 -6.2975e-13 7.73091 5.47488 0.417314 1.03861e-11 9.10434e-14 -6.26569e-13 2.90554 0.965183 0.102902 1.03931e-11 9.12422e-14 -6.27364e-13 10.2786 0.731801 0.0259123 1.03835e-11 9.34288e-14 -6.20208e-13 2.22167 -0.733487 -0.20892 1.04491e-15 1.2424e-17 -1.98785e-16 1.99192e-14 3.60297e-16 -1.98785e-15 3.83704e-13 1.21855e-13 -3.49861e-14 4.40313e-12 -7.94145e-14 -2.44903e-13 1.03903e-11 8.69593e-14 -6.2975e-13 1.79558e-11 1.49486e-13 -1.07821e-12 1.03877e-11 8.78628e-14 -6.20208e-13 -7.73091 5.47488 -0.417314 1.03917e-11 8.67695e-14 -6.26569e-13 -2.90554 0.965183 -0.102902 1.03842e-11 8.69683e-14 -6.24184e-13 -10.2786 0.731801 -0.0259123 1.0398e-11 8.94531e-14 -6.2975e-13 -2.22167 -0.733487 0.20892 -2.03217e-16 0.0 -3.88251e-19 -0.0539115 -2.09674 -0.0177081 -0.00904017 -1.75491 -0.0760429 -0.528934 3.85119 0.139777 2.03217e-16 0.0 3.88251e-19 -1.11487 -4.98914 0.0938582 0.00115144 3.48418 -0.00507106 0.537009 1.50463 -0.0922801
47.7691 82.8715 -0.494525 93.9586 -88.6064 -93.9089 -1.60142 -0.919468 0.286569 -0.480306 2.35778 0.0685963 -0.0709564 3.44857 0.00683347 1.36204 2.12555 -0.678317 -0.0 0.0 0.0 -0.0 0.0 0.0 -4.8399e-16 -1.62214e-13 -4.93545e-15 22.5789 9.0029 1.42775 -10.5743 -7.44554 12.6645 0.0182208 2.99566 0.418938 1.46312e-10 1.73524e-11 -6.12819e-11 2.52083e-10 2.99756e-11 -1.06232e-10 1.46314e-10 1.73536e-11 -6.129e-11 7.73091 5.47488 0.417314 1.46311e-10 1.73542e-11 -6.12879e-11 2.90554 0.965183 0.102902 1.46318e-10 1.73543e-11 -6.12871e-11 10.2786 0.731801 0.0259123 1.46309e-10 1.73562e-11 -6.12816e-11 2.22167 -0.733487 -0.20892 -5.55028e-16 -1.6221e-13 -5.20645e-15 -21.1618 9.59395 -1.98442 10.3982 -7.2648 -12.5571 -0.0617449 5.51665 -0.762393 -4.93667e-11 -1.27644e-11 1.5823e-10 -8.24722e-11 -2.19531e-11 2.73759e-10 -4.93703e-11 -1.27656e-11 1.58238e-10 -7.73091 5.47488 -0.417314 -4.93668e-11 -1.27661e-11 1.58233e-10 -2.90554 0.965183 -0.102902 -4.93732e-11 -1.27664e-11 1.58233e-10 -10.2786 0.731801 -0.0259123 -4.93586e-11 -1.27632e-11 1.58229e-10 -2.22167 -0.733487 0.20892 -2.03217e-16 0.0 -3.88251e-19 -3.22482 -6.96652 0.133625 0.0289967 10.4324 0.119013 -1.30491 -2.19145 -5.24545 2.03217e-16 0.0 3.88251e-19 1.78462 -7.96535 0.96799 -0.0142433 12.7389 -0.16314 1.58517 -5.63193 6.35174
47.7659 82.8769 -0.44843 93.1195 -88.3977 -93.0841 -2.47253 -1.8869 0.613209 -0.77416 4.85558 0.180731 -0.145957 7.09515 0.0127035 2.86014 4.36862 -1.40131 -0.0 0.0 0.0 -0.0 0.0 0.0 -2.20841e-15 -3.34462e-13 -1.0312e-14 45.9385 18.5021 3.05954 -18.204 -14.0911 26.6925 -0.0103823 6.15446 0.864586 2.86895e-10 3.52774e-11 -1.23599e-10 4.94246e-10 6.0938e-11 -2.14208e-10 2.86898e-10 3.52805e-11 -1.23609e-10 7.73091 5.47488 0.417314 2.86894e-10 3.52817e-11 -1.23608e-10 2.90554 0.965183 0.102902 2.86901e-10 3.52818e-11 -1.23606e-10 10.2786 0.731801 0.0259123 2.86892e-10 3.52835e-11 -1.23602e-10 2.22167 -0.733487 -0.20892 -2.25201e-15 -3.34454e-13 -1.05542e-14 -42.7685 19.6987 -4.27184 17.9637 -13.7752 -26.441 0.0354977 11.3453 -1.59222 -1.08432e-10 -2.63103e-11 3.27279e-10 -1.81502e-10 -4.52458e-11 5.66142e-10 -1.08437e-10 -2.63138e-11 3.27284e-10 -7.73091 5.47488 -0.417314 -1.08434e-10 -2.63137e-11 3.2728e-10 -2.90554 0.965183 -0.102902 -1.08439e-10 -2.63145e-11 3.27279e-10 -10.2786 0.731801 -0.0259123 -1.08424e-10 -2.63106e-11 3.27276e-10 -2.22167 -0.733487 0.20892 -2.03217e-16 0.0 -3.88251e-19 -6.54955 -12.1146 0.297068 -0.0273216 23.3158 0.349735 -3.36332 -8.44195 -11.0502 2.03217e-16 0.0 3.88251e-19 4.94954 -11.1081 1.90895 0.0293568 22.522 -0.348505 4.46259 -12.8972 13.4457
47.7657 82.8765 -0.449082 93.6186 -88.392 -93.5846 -3.236 -2.75038 0.903805 -1.04299 7.08333 0.281249 -0.215372 10.3457 0.0208015 4.23785 6.37305 -2.0462 -0.0 0.0 0.0 -0.0 0.0 0.0 -3.73556e-15 -4.86666e-13 -1.50051e-14 66.2528 26.9374 4.74644 -22.2613 -17.9299 39.9617 -0.0781392 8.98506 1.27069 4.18161e-10 5.18742e-11 -1.82599e-10 7.20401e-10 8.96151e-11 -3.16528e-10 4.18164e-10 5.18787e-11 -1.8261e-10 7.73091 5.47488 0.417314 4.18161e-10 5.18805e-11 -1.8261e-10 2.90554 0.965183 0.102902 4.18168e-10 5.18805e-11 -1.82607e-10 10.2786 0.731801 0.0259123 4.18159e-10 5.18819e-11 -1.82604e-10 2.22167 -0.733487 -0.20892 -3.7549e-15 -4.86654e-13 -1.52218e-14 -61.2603 28.6338 -6.69138 22.043 -17.5705 -39.537 0.271242 16.538 -2.37488 -1.68881e-10 -3.84672e-11 4.75951e-10 -2.83328e-10 -6.61582e-11 8.23432e-10 -1.68886e-10 -3.84726e-11 4.75954e-10 -7.73091 5.47488 -0.417314 -1.68884e-10 -3.84719e-11 4.75951e-10 -2.90554 0.965183 -0.102902 -1.68888e-10 -3.84731e-11 4.75948e-10 -10.2786 0.731801 -0.0259123 -1.68872e-10 -3.84686e-11 4.75946e-10 -2.22167 -0.733487 0.20892 -2.03217e-16 0.0 -3.88251e-19 -9.4865 -16.7056 0.452402 -0.18472 34.8056 0.612786 -6.29336 -13.7389 -16.4884 2.03217e-16 0.0 3.88251e-19 7.86368 -13.9055 2.77019 0.131174 31.2474 -0.546535 8.61974 -18.8586 20.2798
47.7646 82.876 -0.458989 93.4802 -88.4411 -93.4511 -3.75134 -3.35426 1.1034 -1.23062 8.63599 0.350793 -0.269892 12.6062 0.0343275 5.20653 7.78433 -2.48506 -0.0 0.0 0.0 -0.0 0.0 0.0 -4.76952e-15 -5.88757e-13 -1.799e-14 80.045 32.7801 6.13473 -23.9478 -19.0001 49.445 -0.150658 10.997 1.56498 5.26137e-10 6.51505e-11 -2.33303e-10 9.06535e-10 1.12579e-10 -4.04706e-10 5.26139e-10 6.51549e-11 -2.33316e-10 7.73091 5.47488 0.417314 5.26135e-10 6.51574e-11 -2.33316e-10 2.90554 0.965183 0.102902 5.26143e-10 6.51568e-11 -2.33311e-10 10.2786 0.731801 0.0259123 5.26134e-10 6.5158e-11 -2.3331e-10 2.22167 -0.733487 -0.20892 -4.77254e-15 -5.88744e-13 -1.81888e-14 -73.6005 34.7825 -8.75054 23.7632 -18.6613 -48.869 0.525434 20.1518 -2.95633 -2.32786e-10 -4.71517e-11 5.7368e-10 -3.92146e-10 -8.112e-11 9.9299e-10 -2.32792e-10 -4.71577e-11 5.73683e-10 -7.73091 5.47488 -0.417314 -2.3279e-10 -4.71566e-11 5.7368e-10 -2.90554 0.965183 -0.102902 -2.32794e-10 -4.71579e-11 5.73676e-10 -10.2786 0.731801 -0.0259123 -2.32778e-10 -4.71533e-11 5.73673e-10 -2.22167 -0.733487 0.20892 -2.03217e-16 0.0 -3.88251e-19 -11.5106 -19.9047 0.572996 -0.380927 42.8133 0.858482 -8.96348 -17.1898 -20.5006 2.03217e-16 0.0 3.88251e-19 9.95095 -15.8505 3.38675 0.247604 37.3296 -0.715442 12.4342 -22.5731 25.4337
47.7625 82.8771 -0.45871 93.5033 -88.4392 -93.4836 -3.92271 -3.59699 1.18177 -1.30022 9.24372 0.377806 -0.309006 13.4881 0.0553935 5.56215 8.36348 -2.62806 -0.0 0.0 0.0 -0.0 0.0 0.0 -1.11238e-14 -6.39666e-13 -1.80044e-14 85.3274 35.0366 6.7318 -24.4486 -19.0148 53.1464 -0.187898 11.8825 1.69618 6.3106e-10 7.67733e-11 -2.78222e-10 1.08775e-09 1.32748e-10 -4.83441e-10 6.31062e-10 7.67749e-11 -2.78235e-10 7.73091 5.47488 0.417314 6.31058e-10 7.67787e-11 -2.78234e-10 2.90554 0.965183 0.102902 6.31067e-10 7.67768e-11 -2.78228e-10 10.2786 0.731801 0.0259123 6.31057e-10 7.67778e-11 -2.78226e-10 2.22167 -0.733487 -0.20892 -1.11206e-14 -6.39654e-13 -1.81938e-14 -78.2747 37.1538 -9.72298 24.2613 -18.6711 -52.4494 0.64643 21.5638 -3.19397 -3.19718e-10 -5.1989e-11 6.1154e-10 -5.42086e-10 -8.94994e-11 1.05981e-09 -3.19722e-10 -5.19935e-11 6.11544e-10 -7.73091 5.47488 -0.417314 -3.19721e-10 -5.19923e-11 6.1154e-10 -2.90554 0.965183 -0.102902 -3.19725e-10 -5.1993e-11 6.11536e-10 -10.2786 0.731801 -0.0259123 -3.19712e-10 -5.19893e-11 6.11532e-10 -2.22167 -0.733487 0.20892 -2.03217e-16 0.0 -3.88251e-19 -12.2828 -21.1541 0.63491 -0.484705 45.947 0.97596 -10.1547 -18.4623 -22.1413 2.03217e-16 0.0 3.88251e-19 10.7899 -16.6075 3.63401 0.305995 39.7123 -0.792312 14.1337 -23.8958 27.5515
